<svg width="16" height="16" viewBox="0 0 16 16" fill="none" xmlns="http://www.w3.org/2000/svg">
<path id="Vector" d="M4.44444 14C3.73333 14 3.02222 13.3 2.66667 13C0.888889 11.6 0.355556 11.1 0 10.8V15C0 15.5522 0.398056 16 0.888889 16H8C8.49083 16 8.88889 15.5522 8.88889 15V10.8C8.53333 11.1 8 11.6 6.22222 13C5.86667 13.3 5.15556 14 4.44444 14ZM8 8H0.888889C0.398056 8 0 8.44781 0 9V9.5C0.711111 10.1 0.622222 10.1 3.2 12.2C3.46667 12.4 4 13 4.44444 13C4.88889 13 5.42222 12.4 5.68889 12.3C8.26667 10.2 8.17778 10.2 8.88889 9.6V9C8.88889 8.44781 8.49083 8 8 8ZM15.1111 5H6.22222C5.73139 5 5.33333 5.44781 5.33333 6V7H8C8.9225 7 9.68305 7.79438 9.76972 8.80688L9.77778 8.8V13H15.1111C15.6019 13 16 12.5522 16 12V6C16 5.44781 15.6019 5 15.1111 5ZM14.2222 9H12.4444V7H14.2222V9ZM4.44444 6C4.44444 4.89719 5.24194 4 6.22222 4H12.4444V1C12.4444 0.447812 12.0464 0 11.5556 0H2.66667C2.17583 0 1.77778 0.447812 1.77778 1V7H4.44444V6Z" fill="#1D4486"/>
</svg>
