<svg width="172" height="67" viewBox="0 0 172 67" fill="none" xmlns="http://www.w3.org/2000/svg">
<path d="M159.592 0L138.401 39.3562L116.739 0H50.0431V11.3517H71.044V55.0865H59.3328L40.1125 5.67755C38.6609 1.89252 35.8866 0 31.7861 0H25.922L12.4777 34.34H25.0334L31.8811 15.988H31.9761L40.7739 39.8276H10.3308L0 66.2211H13.6241L19.4882 50.7995H44.274L49.5955 65.0171C49.8668 65.7395 50.5587 66.2211 51.3286 66.2211H82.0023C83.1622 66.2211 84.1017 65.2816 84.1017 64.1217V11.3517H105.102V48.9477H117.875V24.311L134.715 54.2046H138.31C139.571 54.2046 140.691 53.8417 141.667 53.1159C142.644 52.3901 143.607 51.1759 144.554 49.4734L158.459 24.311V66.2211H171.232V0H159.595H159.592Z" fill="#0D529F"/>
</svg>
