<svg width="178" height="44" viewBox="0 0 178 44" fill="none" xmlns="http://www.w3.org/2000/svg">
<mask id="mask0_90_14319" style="mask-type:alpha" maskUnits="userSpaceOnUse" x="0" y="0" width="178" height="44">
<rect width="178" height="44" fill="#D9D9D9"/>
</mask>
<g mask="url(#mask0_90_14319)">
<path d="M119.632 0V43.3353H121.194V0" fill="white"/>
<path d="M135.323 7.51738H131.657L130.789 9.799H128.773L132.609 0H133.477C134.082 0 134.493 0.279654 134.708 0.838963L138.193 9.79678H136.178L135.323 7.51516V7.51738ZM132.174 5.89272H134.806L133.505 2.36596H133.492L132.176 5.89272H132.174Z" fill="white"/>
<path d="M139.347 9.27298C138.961 8.92231 138.766 8.38075 138.766 7.64167V0H140.67V7.53069C140.67 7.75486 140.721 7.91688 140.823 8.0212C140.925 8.12329 141.089 8.17434 141.314 8.17434H142.07V9.799H141.174C140.344 9.799 139.733 9.62366 139.347 9.2752V9.27298Z" fill="white"/>
<path d="M143.832 12.003C143.337 11.5791 143.062 11.0198 143.007 10.3295H144.882C144.9 10.5337 144.984 10.7002 145.133 10.8267C145.282 10.9532 145.468 11.0153 145.692 11.0153H146.953C147.242 11.0153 147.479 10.8955 147.661 10.658C147.843 10.4205 147.934 10.1098 147.934 9.72802V9.07105C147.748 9.27525 147.521 9.43949 147.255 9.56156C146.988 9.68363 146.735 9.74356 146.491 9.74356H145.526C144.676 9.74356 143.992 9.49276 143.475 8.98672C142.958 8.48289 142.698 7.82149 142.698 7.00028V5.57316C142.698 5.00497 142.82 4.50337 143.062 4.06835C143.304 3.63333 143.646 3.29819 144.083 3.06071C144.523 2.82322 145.026 2.70337 145.595 2.70337H146.407C146.724 2.70337 147.035 2.77883 147.337 2.92754C147.641 3.07624 147.885 3.27378 148.072 3.5157V2.81656H149.836V9.73024C149.836 10.3095 149.716 10.8178 149.479 11.255C149.241 11.6945 148.902 12.0341 148.464 12.276C148.025 12.5179 147.521 12.64 146.953 12.64H145.692C144.947 12.64 144.325 12.4269 143.83 12.003H143.832ZM146.618 8.13222C146.973 8.13222 147.27 7.98573 147.515 7.69054C147.756 7.39757 147.896 7.01138 147.934 6.53641V5.57094C147.896 5.19806 147.77 4.89843 147.557 4.67427C147.341 4.4501 147.071 4.33913 146.744 4.33913H145.766C145.419 4.33913 145.14 4.46564 144.927 4.71644C144.714 4.96724 144.605 5.30016 144.605 5.71076V6.85823C144.605 7.23998 144.702 7.54849 144.898 7.78154C145.093 8.01458 145.346 8.13222 145.652 8.13222H146.618Z" fill="white"/>
<path d="M152.672 9.56604C152.22 9.33744 151.869 9.01339 151.623 8.59391C151.376 8.17443 151.252 7.68836 151.252 7.13793V5.49996C151.252 4.94953 151.378 4.46124 151.629 4.03732C151.882 3.6134 152.233 3.28492 152.686 3.04965C153.139 2.81661 153.658 2.69897 154.246 2.69897H155.507C156.095 2.69897 156.614 2.81661 157.067 3.04965C157.52 3.2827 157.873 3.61118 158.123 4.03732C158.374 4.46124 158.501 4.94953 158.501 5.49996V7.13793C158.501 7.68836 158.374 8.17443 158.123 8.59391C157.87 9.01339 157.52 9.33744 157.067 9.56604C156.614 9.79465 156.09 9.90784 155.493 9.90784H154.233C153.645 9.90784 153.125 9.79465 152.672 9.56604ZM155.465 8.27209C155.811 8.27209 156.086 8.15224 156.29 7.91475C156.494 7.67727 156.599 7.36654 156.599 6.98479V5.62647C156.599 5.24472 156.497 4.93399 156.29 4.69651C156.086 4.45902 155.815 4.33917 155.478 4.33917H154.275C153.94 4.33917 153.669 4.45902 153.463 4.69651C153.258 4.93399 153.154 5.24472 153.154 5.62647V6.98479C153.154 7.36654 153.256 7.67727 153.463 7.91475C153.667 8.15224 153.933 8.27209 154.259 8.27209H155.462H155.465Z" fill="white"/>
<path d="M131.992 18.4751H128.885V16.7949H137.03V18.4751H133.923V26.5939H131.992V18.4751Z" fill="white"/>
<path d="M136.597 19.6092H138.361V20.5058C138.539 20.2351 138.792 20.0131 139.125 19.84C139.455 19.6669 139.804 19.5803 140.168 19.5803H141.12V21.2316H140.168C139.673 21.2316 139.271 21.3803 138.965 21.6799C138.656 21.9796 138.503 22.3613 138.503 22.8274V26.5917H136.599V19.607L136.597 19.6092Z" fill="white"/>
<path d="M142.253 26.1609C141.804 25.7969 141.58 25.3153 141.58 24.7183V24.2011C141.58 23.613 141.813 23.1402 142.279 22.7807C142.745 22.4211 143.362 22.2413 144.126 22.2413H144.98C145.222 22.2413 145.484 22.2746 145.764 22.339C146.043 22.4033 146.301 22.4921 146.534 22.6053V21.8773C146.534 21.6443 146.456 21.4556 146.303 21.3114C146.15 21.1671 145.946 21.0939 145.695 21.0939H144.492C144.23 21.0939 144.021 21.1538 143.862 21.2759C143.702 21.3979 143.624 21.5599 143.624 21.7664H141.778C141.778 21.085 142.026 20.5368 142.526 20.1217C143.025 19.7067 143.68 19.498 144.492 19.498H145.695C146.516 19.498 147.178 19.7156 147.681 20.1484C148.185 20.5812 148.438 21.1582 148.438 21.8773V26.5937H146.674V25.7548C146.45 26.0433 146.174 26.2741 145.848 26.4472C145.522 26.6204 145.2 26.7069 144.883 26.7069H144.015C143.287 26.7069 142.699 26.5249 142.25 26.1609H142.253ZM145.025 25.2509C145.371 25.2509 145.677 25.1622 145.948 24.9846C146.219 24.807 146.414 24.5696 146.536 24.2699V24.0324C146.387 23.9215 146.179 23.8327 145.912 23.7661C145.646 23.7017 145.364 23.6684 145.065 23.6684H144.184C143.959 23.6684 143.777 23.7239 143.638 23.8371C143.498 23.9481 143.427 24.099 143.427 24.2855V24.6495C143.427 24.827 143.504 24.9713 143.658 25.0823C143.811 25.1955 144.015 25.2509 144.266 25.2509H145.022H145.025Z" fill="white"/>
<path d="M150.531 25.9503C150.023 25.4464 149.768 24.785 149.768 23.9638V22.368C149.768 21.7998 149.89 21.296 150.132 20.8632C150.373 20.4282 150.715 20.093 151.153 19.8556C151.592 19.6181 152.1 19.4982 152.677 19.4982H153.447C153.718 19.4982 153.993 19.5559 154.273 19.6736C154.553 19.7912 154.786 19.9466 154.972 20.1419V16.7971H156.877V26.5939H155.112V25.6706C154.926 25.9791 154.673 26.2277 154.357 26.4186C154.04 26.6094 153.709 26.7049 153.363 26.7049H152.537C151.707 26.7049 151.037 26.4541 150.529 25.9503H150.531ZM153.576 25.0691C153.958 25.0691 154.278 24.9315 154.535 24.6563C154.792 24.3811 154.939 24.0149 154.977 23.5577V22.3392C154.912 21.9752 154.768 21.6844 154.551 21.4647C154.331 21.245 154.071 21.1362 153.774 21.1362H152.919C152.546 21.1362 152.245 21.2627 152.016 21.5135C151.787 21.7643 151.674 22.0972 151.674 22.5078V23.824C151.674 24.1969 151.776 24.4987 151.983 24.7273C152.187 24.9559 152.453 25.0691 152.779 25.0691H153.576Z" fill="white"/>
<path d="M158.901 18.637C158.681 18.4262 158.572 18.1487 158.572 17.8047C158.572 17.4607 158.681 17.181 158.901 16.9724C159.12 16.7615 159.411 16.6572 159.775 16.6572C160.139 16.6572 160.43 16.7615 160.65 16.9724C160.869 17.1832 160.978 17.4607 160.978 17.8047C160.978 18.1487 160.869 18.4284 160.65 18.637C160.43 18.8479 160.139 18.9522 159.775 18.9522C159.411 18.9522 159.12 18.8479 158.901 18.637ZM158.823 19.6091H160.727V26.5938H158.823V19.6091Z" fill="white"/>
<path d="M162.671 19.609H164.436V20.448C164.64 20.1595 164.906 19.9286 165.232 19.7555C165.559 19.5824 165.885 19.4958 166.211 19.4958H167.05C167.796 19.4958 168.395 19.7289 168.848 20.195C169.301 20.6611 169.527 21.2781 169.527 22.0416V26.5915H167.623V22.1126C167.623 21.8241 167.545 21.591 167.392 21.4135C167.239 21.2359 167.039 21.1471 166.797 21.1471H165.958C165.632 21.1471 165.339 21.267 165.084 21.5045C164.826 21.742 164.658 22.0527 164.573 22.4344V26.5915H162.669V19.6068L162.671 19.609Z" fill="white"/>
<path d="M171.994 28.7976C171.499 28.3737 171.223 27.8144 171.168 27.1242H173.043C173.061 27.3283 173.145 27.4948 173.296 27.6213C173.445 27.7478 173.632 27.81 173.856 27.81H175.116C175.405 27.81 175.64 27.6901 175.822 27.4526C176.004 27.2152 176.095 26.9044 176.095 26.5227V25.8657C175.909 26.0721 175.682 26.2341 175.416 26.3562C175.15 26.4783 174.897 26.5382 174.652 26.5382H173.687C172.837 26.5382 172.153 26.2852 171.636 25.7836C171.119 25.2798 170.859 24.6184 170.859 23.7972V22.37C170.859 21.8018 170.981 21.298 171.223 20.8652C171.465 20.4302 171.807 20.0951 172.244 19.8576C172.684 19.6201 173.188 19.5002 173.756 19.5002H174.568C174.886 19.5002 175.196 19.5757 175.498 19.7244C175.802 19.8731 176.046 20.0706 176.233 20.3126V19.6134H177.997V26.5271C177.997 27.1064 177.877 27.6147 177.64 28.0519C177.402 28.4914 177.063 28.8309 176.626 29.0729C176.186 29.3148 175.682 29.4369 175.114 29.4369H173.853C173.108 29.4369 172.486 29.2238 171.991 28.7999L171.994 28.7976ZM174.779 24.9269C175.134 24.9269 175.432 24.7804 175.676 24.4852C175.918 24.1922 176.057 23.806 176.095 23.3311V22.3656C176.057 21.9927 175.931 21.6931 175.718 21.4689C175.503 21.2448 175.232 21.1338 174.905 21.1338H173.927C173.58 21.1338 173.301 21.2603 173.088 21.5111C172.872 21.7619 172.766 22.0948 172.766 22.5054V23.6529C172.766 24.0369 172.864 24.3431 173.059 24.5762C173.254 24.8092 173.507 24.9269 173.816 24.9269H174.781H174.779Z" fill="white"/>
<path d="M129.584 33.5918H131.306L134.511 39.4135L137.647 33.5918H139.37V43.3886H137.481V37.1874L135.423 40.9094C135.284 41.1624 135.142 41.3422 134.997 41.4488C134.853 41.5553 134.687 41.6108 134.5 41.6108H133.967L131.477 37.1874V43.3886H129.588V33.5918H129.584Z" fill="white"/>
<path d="M141.566 42.9558C141.118 42.5918 140.894 42.1124 140.894 41.5154V40.9982C140.894 40.4101 141.127 39.9373 141.593 39.5778C142.059 39.2182 142.676 39.0384 143.439 39.0384H144.294C144.536 39.0384 144.798 39.0717 145.077 39.1361C145.357 39.2005 145.614 39.2892 145.847 39.4024V38.6744C145.847 38.4414 145.77 38.2527 145.617 38.1085C145.463 37.9642 145.259 37.891 145.008 37.891H143.806C143.544 37.891 143.335 37.9509 143.175 38.073C143.015 38.195 142.938 38.3571 142.938 38.5635H141.091C141.091 37.8821 141.34 37.3339 141.839 36.9188C142.338 36.5038 142.993 36.2952 143.806 36.2952H145.008C145.83 36.2952 146.491 36.5127 146.995 36.9455C147.499 37.3783 147.75 37.9553 147.75 38.6744V43.3908H145.985V42.5519C145.761 42.8404 145.486 43.0712 145.159 43.2444C144.833 43.4175 144.511 43.504 144.194 43.504H143.326C142.598 43.504 142.01 43.322 141.562 42.958L141.566 42.9558ZM144.338 42.0458C144.684 42.0458 144.991 41.9571 145.261 41.7795C145.532 41.6019 145.728 41.3645 145.85 41.0648V40.8273C145.701 40.7141 145.492 40.6276 145.226 40.561C144.96 40.4966 144.678 40.4633 144.378 40.4633H143.497C143.273 40.4633 143.091 40.5188 142.951 40.632C142.811 40.743 142.74 40.8939 142.74 41.0804V41.4444C142.74 41.6219 142.818 41.7662 142.971 41.8794C143.124 41.9904 143.328 42.0481 143.579 42.0481H144.334L144.338 42.0458Z" fill="white"/>
<path d="M149.361 36.4061H151.126V37.3027C151.303 37.0319 151.556 36.81 151.889 36.6369C152.22 36.4638 152.568 36.3772 152.932 36.3772H153.885V38.0285H152.932C152.438 38.0285 152.036 38.1772 151.73 38.4768C151.421 38.7765 151.268 39.1582 151.268 39.6243V43.3885H149.364V36.4038L149.361 36.4061Z" fill="white"/>
<path d="M159.622 43.3908L157.438 40.592L156.696 41.3333V43.3908H154.792V33.594H156.696V39.1915L159.453 36.4061H161.664L158.667 39.3735L161.774 43.3908H159.619H159.622Z" fill="white"/>
<path d="M163.422 43.1734C162.969 42.9536 162.616 42.6473 162.366 42.2501C162.115 41.8528 161.988 41.3978 161.988 40.8851V39.0784C161.988 38.528 162.115 38.0419 162.366 37.6224C162.619 37.203 162.969 36.8767 163.422 36.6436C163.875 36.4106 164.394 36.293 164.982 36.293H166.103C167 36.293 167.717 36.546 168.258 37.0498C168.8 37.5536 169.071 38.2261 169.071 39.0651V40.5477H163.893V40.8829C163.893 41.1914 163.99 41.4377 164.186 41.6242C164.381 41.8106 164.647 41.9038 164.982 41.9038H166.074C166.401 41.9038 166.665 41.8306 166.864 41.6863C167.064 41.542 167.166 41.3534 167.166 41.1203H169.042C169.042 41.5864 168.915 42.0015 168.664 42.3655C168.411 42.7295 168.061 43.0091 167.608 43.2044C167.155 43.3997 166.636 43.4974 166.048 43.4974H164.985C164.396 43.4974 163.877 43.3886 163.424 43.1689L163.422 43.1734ZM167.195 39.1783V39.0673C167.195 38.7033 167.098 38.4126 166.902 38.1928C166.707 37.9731 166.445 37.8644 166.119 37.8644H164.985C164.649 37.8644 164.379 37.982 164.172 38.215C163.968 38.4481 163.864 38.7566 163.864 39.1383V39.1805H167.195V39.1783Z" fill="white"/>
<path d="M171.59 42.8293C171.208 42.4565 171.015 41.8772 171.015 41.0937V38.0286H169.783V36.4062H171.071V34.2932H172.917V36.4062H174.737V38.0286H172.917V41.0094C172.917 41.2713 172.966 41.4621 173.064 41.5842C173.161 41.7063 173.317 41.7662 173.532 41.7662H174.735V43.3909H173.392C172.571 43.3909 171.969 43.2044 171.585 42.8315L171.59 42.8293Z" fill="white"/>
<path d="M77.1378 36.0488H68.7793V43.3354H77.1378V36.0488Z" fill="white"/>
<path d="M104.438 0L90.5703 25.7548L76.3945 0H32.7484V7.4286H46.4914V36.0488H38.8276L26.2498 3.71541C25.2998 1.23847 23.4843 0 20.801 0H16.9635L8.16546 22.4722H16.382L20.8631 10.4626H20.9252L26.6826 26.0633H6.76053L0 43.3353H8.91565L12.7531 33.2434H28.9731L32.4554 42.5474C32.633 43.0202 33.0858 43.3353 33.5896 43.3353H53.6626C54.4216 43.3353 55.0364 42.7205 55.0364 41.9615V7.4286H68.7794V32.0315H77.138V15.9092L88.1577 35.4717H90.5104C91.336 35.4717 92.0684 35.2342 92.7076 34.7593C93.3469 34.2843 93.9772 33.4897 94.5964 32.3755L103.696 15.9092V43.3353H112.055V0H104.44H104.438Z" fill="white"/>
</g>
</svg>
