<svg width="272" height="67" viewBox="0 0 272 67" fill="none" xmlns="http://www.w3.org/2000/svg">
<path d="M182.811 0V66.2211H185.199V0" fill="white"/>
<path d="M206.789 11.4874H201.186L199.86 14.9739H196.781L202.641 0H203.968C204.893 0 205.521 0.427342 205.85 1.28203L211.175 14.9705H208.095L206.789 11.484V11.4874ZM201.977 9.00471H205.999L204.012 3.61545H203.991L201.98 9.00471H201.977Z" fill="white"/>
<path d="M212.938 14.1701C212.348 13.6343 212.05 12.8067 212.05 11.6773V0H214.96V11.5077C214.96 11.8503 215.038 12.0979 215.194 12.2573C215.35 12.4133 215.601 12.4913 215.943 12.4913H217.1V14.9739H215.73C214.461 14.9739 213.529 14.706 212.938 14.1735V14.1701Z" fill="white"/>
<path d="M219.793 18.3418C219.036 17.694 218.616 16.8393 218.531 15.7845H221.397C221.424 16.0966 221.553 16.3509 221.78 16.5443C222.007 16.7376 222.292 16.8325 222.635 16.8325H224.561C225.002 16.8325 225.365 16.6494 225.643 16.2865C225.921 15.9236 226.06 15.4488 226.06 14.8654V13.8615C225.775 14.1735 225.43 14.4245 225.023 14.611C224.616 14.7976 224.229 14.8892 223.856 14.8892H222.38C221.081 14.8892 220.037 14.5059 219.247 13.7326C218.456 12.9627 218.06 11.952 218.06 10.6971V8.51633C218.06 7.64808 218.246 6.88157 218.616 6.21682C218.985 5.55206 219.508 5.03993 220.176 4.67703C220.847 4.31413 221.617 4.13098 222.486 4.13098H223.727C224.212 4.13098 224.687 4.2463 225.148 4.47353C225.613 4.70077 225.986 5.00262 226.271 5.37231V4.30395H228.967V14.8688C228.967 15.754 228.784 16.5307 228.421 17.1988C228.058 17.8704 227.539 18.3893 226.871 18.759C226.199 19.1287 225.43 19.3152 224.561 19.3152H222.635C221.495 19.3152 220.546 18.9896 219.789 18.3418H219.793ZM224.049 12.4268C224.592 12.4268 225.046 12.203 225.419 11.7519C225.789 11.3042 226.003 10.7141 226.06 9.98829V8.51294C226.003 7.94315 225.809 7.48528 225.484 7.14273C225.155 6.80017 224.741 6.63059 224.242 6.63059H222.747C222.218 6.63059 221.79 6.82392 221.465 7.20717C221.139 7.59042 220.973 8.09916 220.973 8.72661V10.4801C220.973 11.0634 221.122 11.5349 221.421 11.891C221.719 12.2471 222.106 12.4268 222.574 12.4268H224.049Z" fill="white"/>
<path d="M233.301 14.6178C232.61 14.2684 232.074 13.7733 231.697 13.1323C231.321 12.4912 231.131 11.7485 231.131 10.9074V8.40435C231.131 7.56323 231.324 6.81708 231.707 6.16928C232.094 5.52149 232.63 5.01953 233.322 4.66002C234.014 4.3039 234.807 4.12415 235.706 4.12415H237.633C238.531 4.12415 239.325 4.3039 240.017 4.66002C240.709 5.01614 241.248 5.5181 241.631 6.16928C242.015 6.81708 242.208 7.56323 242.208 8.40435V10.9074C242.208 11.7485 242.015 12.4912 241.631 13.1323C241.245 13.7733 240.709 14.2684 240.017 14.6178C239.325 14.9671 238.525 15.1401 237.612 15.1401H235.686C234.787 15.1401 233.993 14.9671 233.301 14.6178ZM237.568 12.6405C238.097 12.6405 238.518 12.4573 238.83 12.0944C239.142 11.7315 239.301 11.2567 239.301 10.6733V8.59767C239.301 8.01432 239.145 7.53949 238.83 7.17659C238.518 6.81369 238.104 6.63054 237.588 6.63054H235.75C235.238 6.63054 234.824 6.81369 234.509 7.17659C234.197 7.53949 234.037 8.01432 234.037 8.59767V10.6733C234.037 11.2567 234.193 11.7315 234.509 12.0944C234.821 12.4573 235.228 12.6405 235.727 12.6405H237.565H237.568Z" fill="white"/>
<path d="M201.698 28.2318H196.95V25.6643H209.397V28.2318H204.649V40.6382H201.698V28.2318Z" fill="white"/>
<path d="M208.736 29.9649H211.433V31.3351C211.704 30.9213 212.091 30.5821 212.599 30.3176C213.105 30.053 213.637 29.9208 214.193 29.9208H215.648V32.4441H214.193C213.437 32.4441 212.823 32.6714 212.355 33.1292C211.884 33.5871 211.65 34.1705 211.65 34.8827V40.6349H208.74V29.9615L208.736 29.9649Z" fill="white"/>
<path d="M217.378 39.9769C216.693 39.4207 216.35 38.6847 216.35 37.7723V36.9821C216.35 36.0833 216.706 35.3609 217.418 34.8115C218.131 34.262 219.074 33.9873 220.24 33.9873H221.546C221.916 33.9873 222.316 34.0382 222.743 34.1365C223.171 34.2349 223.564 34.3706 223.92 34.5435V33.4311C223.92 33.075 223.801 32.7867 223.567 32.5662C223.333 32.3458 223.021 32.2339 222.638 32.2339H220.8C220.4 32.2339 220.081 32.3254 219.837 32.512C219.592 32.6985 219.474 32.9461 219.474 33.2615H216.652C216.652 32.2203 217.032 31.3826 217.795 30.7483C218.558 30.1141 219.559 29.7953 220.8 29.7953H222.638C223.893 29.7953 224.904 30.1277 225.674 30.789C226.444 31.4504 226.83 32.3322 226.83 33.4311V40.6383H224.134V39.3562C223.791 39.7971 223.371 40.1499 222.872 40.4144C222.374 40.679 221.882 40.8112 221.397 40.8112H220.071C218.958 40.8112 218.059 40.5331 217.374 39.9769H217.378ZM221.614 38.5863C222.143 38.5863 222.611 38.4507 223.025 38.1793C223.439 37.908 223.737 37.5451 223.924 37.0872V36.7243C223.696 36.5548 223.377 36.4191 222.97 36.3173C222.564 36.219 222.133 36.1681 221.675 36.1681H220.328C219.986 36.1681 219.708 36.2529 219.494 36.4259C219.28 36.5955 219.172 36.8261 219.172 37.111V37.6672C219.172 37.9385 219.291 38.159 219.525 38.3286C219.759 38.5015 220.071 38.5863 220.454 38.5863H221.61H221.614Z" fill="white"/>
<path d="M230.029 39.6547C229.252 38.8848 228.862 37.8741 228.862 36.6192V34.1807C228.862 33.3124 229.048 32.5425 229.418 31.8811C229.788 31.2164 230.31 30.7043 230.978 30.3414C231.65 29.9785 232.426 29.7953 233.308 29.7953H234.485C234.899 29.7953 235.319 29.8835 235.747 30.0632C236.174 30.243 236.53 30.4804 236.815 30.7789V25.6677H239.725V40.6383H237.029V39.2274C236.744 39.6988 236.357 40.0787 235.876 40.3703C235.391 40.662 234.885 40.8079 234.356 40.8079H233.095C231.826 40.8079 230.802 40.4246 230.025 39.6547H230.029ZM234.682 38.3082C235.265 38.3082 235.754 38.098 236.147 37.6774C236.54 37.2568 236.764 36.6972 236.822 35.9986V34.1366C236.724 33.5803 236.503 33.136 236.171 32.8003C235.835 32.4645 235.438 32.2983 234.984 32.2983H233.678C233.108 32.2983 232.647 32.4916 232.298 32.8749C231.948 33.2581 231.775 33.7669 231.775 34.3943V36.4055C231.775 36.9753 231.931 37.4366 232.247 37.7859C232.559 38.1353 232.966 38.3082 233.464 38.3082H234.682Z" fill="white"/>
<path d="M242.818 28.4793C242.483 28.1571 242.316 27.7331 242.316 27.2074C242.316 26.6817 242.483 26.2544 242.818 25.9356C243.154 25.6134 243.598 25.454 244.155 25.454C244.711 25.454 245.155 25.6134 245.491 25.9356C245.827 26.2578 245.993 26.6817 245.993 27.2074C245.993 27.7331 245.827 28.1605 245.491 28.4793C245.155 28.8015 244.711 28.9609 244.155 28.9609C243.598 28.9609 243.154 28.8015 242.818 28.4793ZM242.7 29.9648H245.61V40.6382H242.7V29.9648Z" fill="white"/>
<path d="M248.581 29.9648H251.277V31.2469C251.589 30.806 251.996 30.4532 252.494 30.1887C252.993 29.9241 253.492 29.7919 253.99 29.7919H255.272C256.412 29.7919 257.328 30.148 258.019 30.8602C258.711 31.5725 259.057 32.5153 259.057 33.682V40.6348H256.147V33.7906C256.147 33.3497 256.029 32.9935 255.794 32.7222C255.56 32.4509 255.255 32.3152 254.886 32.3152H253.604C253.105 32.3152 252.657 32.4984 252.267 32.8613C251.874 33.2242 251.616 33.699 251.487 34.2824V40.6348H248.577V29.9615L248.581 29.9648Z" fill="white"/>
<path d="M262.825 44.006C262.069 43.3582 261.649 42.5035 261.564 41.4487H264.43C264.457 41.7608 264.586 42.0151 264.816 42.2085C265.043 42.4018 265.328 42.4968 265.671 42.4968H267.597C268.038 42.4968 268.398 42.3136 268.676 41.9507C268.954 41.5878 269.093 41.113 269.093 40.5296V39.5257C268.808 39.8411 268.462 40.0887 268.055 40.2753C267.648 40.4618 267.262 40.5534 266.889 40.5534H265.413C264.114 40.5534 263.07 40.1667 262.279 39.4002C261.489 38.6303 261.092 37.6196 261.092 36.3647V34.1839C261.092 33.3157 261.279 32.5458 261.649 31.8844C262.018 31.2197 262.54 30.7075 263.209 30.3446C263.88 29.9817 264.65 29.7986 265.518 29.7986H266.76C267.245 29.7986 267.719 29.9139 268.181 30.1411C268.645 30.3684 269.018 30.6702 269.303 31.0399V29.9716H272V40.5364C272 41.4216 271.817 42.1983 271.454 42.8664C271.091 43.538 270.572 44.0569 269.904 44.4266C269.232 44.7963 268.462 44.9828 267.594 44.9828H265.668C264.528 44.9828 263.578 44.6572 262.822 44.0094L262.825 44.006ZM267.082 38.0911C267.625 38.0911 268.079 37.8672 268.452 37.4161C268.822 36.9684 269.035 36.3783 269.093 35.6525V34.1771C269.035 33.6074 268.842 33.1495 268.517 32.8069C268.188 32.4644 267.774 32.2948 267.275 32.2948H265.779C265.25 32.2948 264.823 32.4881 264.497 32.8714C264.168 33.2546 264.006 33.7634 264.006 34.3908V36.1443C264.006 36.731 264.155 37.1991 264.453 37.5552C264.752 37.9113 265.138 38.0911 265.61 38.0911H267.085H267.082Z" fill="white"/>
<path d="M198.019 51.3319H200.65L205.548 60.2281L210.34 51.3319H212.972V66.3025H210.086V56.8263L206.942 62.514C206.728 62.9007 206.511 63.1754 206.291 63.3382C206.07 63.501 205.816 63.5858 205.531 63.5858H204.717L200.912 56.8263V66.3025H198.025V51.3319H198.019Z" fill="white"/>
<path d="M216.33 65.6411C215.645 65.0849 215.302 64.3523 215.302 63.4399V62.6497C215.302 61.7509 215.658 61.0285 216.371 60.4791C217.083 59.9296 218.026 59.6549 219.192 59.6549H220.498C220.868 59.6549 221.268 59.7058 221.695 59.8041C222.123 59.9025 222.516 60.0382 222.872 60.2111V59.0987C222.872 58.7426 222.754 58.4543 222.52 58.2338C222.286 58.0134 221.974 57.9015 221.59 57.9015H219.752C219.352 57.9015 219.033 57.993 218.789 58.1796C218.545 58.3661 218.426 58.6137 218.426 58.9291H215.604C215.604 57.8879 215.984 57.0502 216.747 56.4159C217.51 55.7817 218.511 55.4629 219.752 55.4629H221.59C222.845 55.4629 223.856 55.7953 224.626 56.4566C225.396 57.118 225.779 57.9998 225.779 59.0987V66.3059H223.083V65.0238C222.74 65.4647 222.319 65.8175 221.821 66.082C221.322 66.3466 220.831 66.4788 220.346 66.4788H219.019C217.907 66.4788 217.008 66.2007 216.323 65.6445L216.33 65.6411ZM220.566 64.2505C221.095 64.2505 221.563 64.1149 221.977 63.8436C222.391 63.5722 222.689 63.2093 222.876 62.7515V62.3885C222.648 62.2156 222.33 62.0833 221.923 61.9816C221.516 61.8832 221.085 61.8323 220.627 61.8323H219.281C218.938 61.8323 218.66 61.9171 218.446 62.0901C218.233 62.2597 218.124 62.4903 218.124 62.7752V63.3314C218.124 63.6027 218.243 63.8232 218.477 63.9962C218.711 64.1658 219.023 64.2539 219.406 64.2539H220.559L220.566 64.2505Z" fill="white"/>
<path d="M228.241 55.6325H230.938V57.0027C231.209 56.5889 231.595 56.2497 232.104 55.9852C232.61 55.7207 233.142 55.5884 233.698 55.5884H235.153V58.1117H233.698C232.942 58.1117 232.328 58.339 231.86 58.7968C231.389 59.2547 231.155 59.8381 231.155 60.5503V66.3025H228.245V55.6291L228.241 55.6325Z" fill="white"/>
<path d="M243.921 66.3059L240.583 62.0291L239.451 63.1619V66.3059H236.541V51.3353H239.451V59.889L243.663 55.6325H247.041L242.462 60.1671L247.211 66.3059H243.917H243.921Z" fill="white"/>
<path d="M249.727 65.9736C249.035 65.6378 248.496 65.1698 248.113 64.5627C247.729 63.9556 247.536 63.2603 247.536 62.4768V59.7161C247.536 58.8749 247.729 58.1322 248.113 57.4912C248.499 56.8501 249.035 56.3516 249.727 55.9955C250.419 55.6394 251.213 55.4596 252.111 55.4596H253.824C255.194 55.4596 256.29 55.8462 257.117 56.6161C257.945 57.386 258.359 58.4137 258.359 59.6957V61.9613H250.446V62.4734C250.446 62.9449 250.595 63.3213 250.894 63.6062C251.192 63.8911 251.599 64.0336 252.111 64.0336H253.78C254.279 64.0336 254.682 63.9217 254.988 63.7012C255.293 63.4807 255.449 63.1925 255.449 62.8363H258.315C258.315 63.5486 258.121 64.1828 257.738 64.739C257.351 65.2953 256.816 65.7226 256.124 66.0211C255.432 66.3195 254.638 66.4687 253.739 66.4687H252.115C251.216 66.4687 250.422 66.3026 249.731 65.9668L249.727 65.9736ZM255.493 59.8687V59.6991C255.493 59.1429 255.344 58.6986 255.045 58.3628C254.747 58.027 254.346 57.8609 253.848 57.8609H252.115C251.603 57.8609 251.189 58.0406 250.873 58.3967C250.561 58.7528 250.402 59.2243 250.402 59.8076V59.8721H255.493V59.8687Z" fill="white"/>
<path d="M262.208 65.4478C261.625 64.878 261.33 63.9928 261.33 62.7956V58.1118H259.447V55.6325H261.414V52.4037H264.236V55.6325H267.017V58.1118H264.236V62.6667C264.236 63.0669 264.311 63.3586 264.46 63.5451C264.609 63.7317 264.847 63.8232 265.176 63.8232H267.014V66.3059H264.962C263.707 66.3059 262.788 66.021 262.201 65.4512L262.208 65.4478Z" fill="white"/>
<path d="M117.875 55.0864H105.103V66.2211H117.875V55.0864Z" fill="#0D529F"/>
<path d="M159.592 0L138.401 39.3562L116.739 0H50.0431V11.3517H71.044V55.0865H59.3328L40.1125 5.67755C38.6609 1.89252 35.8866 0 31.7861 0H25.922L12.4777 34.34H25.0334L31.8811 15.988H31.9761L40.7739 39.8276H10.3308L0 66.2211H13.6241L19.4882 50.7995H44.274L49.5955 65.0171C49.8668 65.7395 50.5587 66.2211 51.3286 66.2211H82.0023C83.1622 66.2211 84.1017 65.2816 84.1017 64.1217V11.3517H105.102V48.9477H117.875V24.311L134.715 54.2046H138.31C139.571 54.2046 140.691 53.8417 141.667 53.1159C142.644 52.3901 143.607 51.1759 144.554 49.4734L158.459 24.311V66.2211H171.232V0H159.595H159.592Z" fill="#0D529F"/>
</svg>
