<svg width="24" height="24" viewBox="0 0 24 24" fill="none" xmlns="http://www.w3.org/2000/svg">
  <path fillRule="evenodd" clipRule="evenodd"
    d="M4.00024 2C2.89567 2 2.00024 2.89543 2.00024 4V8C2.00024 9.10457 2.89567 10 4.00024 10H8.00024C9.10481 10 10.0002 9.10457 10.0002 8V4C10.0002 2.89543 9.10481 2 8.00024 2H4.00024ZM18.0002 10C20.2094 10 22.0002 8.20914 22.0002 6C22.0002 3.79086 20.2094 2 18.0002 2C15.7911 2 14.0002 3.79086 14.0002 6C14.0002 8.20914 15.7911 10 18.0002 10ZM10.0002 18C10.0002 20.2091 8.20938 22 6.00024 22C3.79111 22 2.00024 20.2091 2.00024 18C2.00024 15.7909 3.79111 14 6.00024 14C8.20938 14 10.0002 15.7909 10.0002 18ZM16.0002 14C14.8957 14 14.0002 14.8954 14.0002 16V20C14.0002 21.1046 14.8957 22 16.0002 22H20.0002C21.1048 22 22.0002 21.1046 22.0002 20V16C22.0002 14.8954 21.1048 14 20.0002 14H16.0002Z"
    fill="currentColor" />
</svg>