<svg width="24" height="24" viewBox="0 0 24 24" fill="none" xmlns="http://www.w3.org/2000/svg">
<path fill-rule="evenodd" clip-rule="evenodd" d="M10.7704 2.27641C11.5446 1.88931 12.4559 1.88931 13.2301 2.27641L20.5468 5.93477C21.8367 6.57969 21.8366 8.42035 20.5468 9.06526L13.2301 12.7236C12.4559 13.1107 11.5446 13.1107 10.7704 12.7236L3.4537 9.06526C2.16387 8.42034 2.16387 6.57968 3.45371 5.93477L10.7704 2.27641ZM2.31483 17.1953C2.48306 16.8168 2.92628 16.6464 3.30479 16.8146L11.4925 20.4536C11.8157 20.5972 12.1847 20.5972 12.5079 20.4536L20.6956 16.8146C21.0741 16.6464 21.5173 16.8168 21.6855 17.1953C21.8538 17.5739 21.6833 18.0171 21.3048 18.1853L13.1171 21.8243C12.406 22.1403 11.5944 22.1403 10.8833 21.8243L2.69558 18.1853C2.31707 18.0171 2.1466 17.5739 2.31483 17.1953ZM3.30479 12.3146C2.92628 12.1464 2.48306 12.3168 2.31483 12.6953C2.1466 13.0739 2.31707 13.5171 2.69558 13.6853L10.8833 17.3243C11.5944 17.6403 12.406 17.6403 13.1171 17.3243L21.3048 13.6853C21.6833 13.5171 21.8538 13.0739 21.6855 12.6953C21.5173 12.3168 21.0741 12.1464 20.6956 12.3146L12.5079 15.9536C12.1847 16.0972 11.8157 16.0972 11.4925 15.9536L3.30479 12.3146Z" fill="currentColor"/>
</svg>
