<svg width="24" height="24" viewBox="0 0 24 24" fill="none" xmlns="http://www.w3.org/2000/svg">
  <path
    d="M14.2119 19.4503H9.7816C5.85609 19.4503 2.67383 16.2681 2.67383 12.3426V12.1072C2.67383 8.18226 5.85609 5 9.7816 5H14.2119C18.1374 5 21.3196 8.18226 21.3196 12.1078V12.3431C21.3196 16.2686 18.1374 19.4509 14.2119 19.4509V19.4503ZM19.2224 11.5865C19.2224 10.166 18.0708 9.0139 16.6498 9.0139H7.34313C5.92264 9.0139 4.77049 10.1655 4.77049 11.5865C4.77049 13.007 5.92211 14.1592 7.34313 14.1592H16.6503C18.0708 14.1592 19.223 13.0076 19.223 11.5865H19.2224Z"
    fill="currentColor" />
  <path
    d="M8.78877 12.609C9.35355 12.375 9.62176 11.7275 9.38781 11.1628C9.15387 10.598 8.50637 10.3298 7.94158 10.5637C7.3768 10.7977 7.10859 11.4452 7.34254 12.0099C7.57648 12.5747 8.22398 12.8429 8.78877 12.609Z"
    fill="currentColor" />
  <path
    d="M16.4108 12.3696C16.8431 11.9373 16.8431 11.2365 16.4108 10.8042C15.9786 10.372 15.2777 10.3719 14.8454 10.8042C14.4132 11.2365 14.4132 11.9373 14.8454 12.3696C15.2777 12.8019 15.9786 12.8019 16.4108 12.3696Z"
    fill="currentColor" />
  <path
    d="M2.80346 14.0647C3.2475 14.0647 3.60741 13.7048 3.60741 13.2608V11.1897C3.60741 10.7457 3.2475 10.3857 2.80346 10.3857C2.35943 10.3857 1.99951 10.7457 1.99951 11.1897V13.2608C1.99951 13.7048 2.35943 14.0647 2.80346 14.0647Z"
    fill="currentColor" />
  <path
    d="M21.999 11.1897C21.999 10.7457 21.6391 10.3857 21.1951 10.3857C20.7511 10.3857 20.3911 10.7457 20.3911 11.1897V13.2608C20.3911 13.7048 20.7511 14.0647 21.1951 14.0647C21.6391 14.0647 21.999 13.7048 21.999 13.2608V11.1897Z"
    fill="currentColor" />
</svg>